# xmcd
#
# Track frame offsets: 
#        150
#        10150
#        31982
#        58481
#        77953
#        104764
#        126311
#        151338
#        171516
#        191530
#        214694
#        232310
#        250103
#        268491
#        284527
#        301768
#        317660
#
# Disc length: 4541 seconds
#
# Revision: 0
# Processed by: cddbd v1.5.1PL0 Copyright (c) Steve Scherf et al.
# Submitted via: ExactAudioCopy v0.95a5
#
DISCID=0411bb11
DTITLE=Arken(艾尔肯) - 一千零一夜
DYEAR=2003
DGENRE=Latin
TTITLE0=牧马人 Coyboy (吉他曲)
TTITLE1=巴郎仔 Poser
TTITLE2=爱的要死 Would Die for Love(维吾尔语)
TTITLE3=花儿为什么这样红
TTITLE4=孤独 Loneliness (维吾尔语)
TTITLE5=今天晚上 Tonight
TTITLE6=分手 Broke Up
TTITLE7=农庄(维吾尔语)
TTITLE8=茶花姑娘　Tea Girl
TTITLE9=无可奈何　Impatient
TTITLE10=一千零一夜 Thausand And One Night(维吾尔语)
TTITLE11=快乐旅途　Happy Journey
TTITLE12=我的姑娘在那里　Where Is My Girl
TTITLE13=跪吧
TTITLE14=坏女人
TTITLE15=单身汉
TTITLE16=刀郎
EXTD=
EXTT0=
EXTT1=
EXTT2=
EXTT3=
EXTT4=
EXTT5=
EXTT6=
EXTT7=
EXTT8=
EXTT9=
EXTT10=
EXTT11=
EXTT12=
EXTT13=
EXTT14=
EXTT15=
EXTT16=
PLAYORDER=
